<svg width="43" height="41" viewBox="0 0 43 41" fill="none" xmlns="http://www.w3.org/2000/svg">
<path d="M12.5453 21.4838L8.20406 8.53488C6.71429 4.09128 6.48251 4.41817 4.38674 4.41817C2.29098 4.41817 0.774342 3.96236 0.943687 2.24755C1.11303 0.532734 2.59078 0.73107 6.78974 0.731051C9.6343 0.731038 9.77374 1.98894 10.4539 4.41817C10.9779 6.2894 11.2728 7.78639 14.6411 7.78639C18.0093 7.78639 35.6745 7.86852 39.491 7.78639C43.7021 7.69576 41.9992 10.8466 41.8113 11.3791C41.3622 12.6516 38.8922 20.5107 37.994 23.0556C37.0958 25.6005 35.6737 25.1514 34.5509 25.1514C33.4282 25.1514 19.5811 25.2262 17.9344 25.1514C16.2877 25.0765 16.138 25.8999 15.9135 27.322C15.7339 28.4597 16.6869 28.6942 17.1859 28.6693C22.2757 28.7441 33.0989 28.8489 35.6737 28.6693C38.8922 28.4447 39.7904 29.7172 39.491 30.6154C39.1916 31.5136 38.5179 32.262 36.6467 32.262C34.7755 32.262 22.126 32.3369 17.1859 32.262C12.2459 32.1872 11.6471 27.9956 12.5453 25.8999C13.2639 24.2233 12.8447 22.2572 12.5453 21.4838Z" fill="black"/>
<path d="M18.4328 37.3176C18.4328 39.2206 16.8901 40.7633 14.9871 40.7633C13.0842 40.7633 11.5415 39.2206 11.5415 37.3176C11.5415 35.4147 13.0842 33.872 14.9871 33.872C16.8901 33.872 18.4328 35.4147 18.4328 37.3176Z" fill="black"/>
<path d="M39.3786 37.3176C39.3786 39.2206 37.8359 40.7633 35.9329 40.7633C34.03 40.7633 32.4873 39.2206 32.4873 37.3176C32.4873 35.4147 34.03 33.872 35.9329 33.872C37.8359 33.872 39.3786 35.4147 39.3786 37.3176Z" fill="black"/>
</svg>
