<svg width="30" height="30" viewBox="0 0 30 30" fill="none" xmlns="http://www.w3.org/2000/svg">
<path fill-rule="evenodd" clip-rule="evenodd" d="M11.777 7.77228C13.2049 7.77228 14.3624 6.61472 14.3624 5.1868C14.3624 3.75888 13.2049 2.60132 11.777 2.60132C10.349 2.60132 9.19148 3.75888 9.19148 5.1868C9.19148 6.61472 10.349 7.77228 11.777 7.77228ZM11.777 9.27228C14.0333 9.27228 15.8624 7.44315 15.8624 5.1868C15.8624 2.93045 14.0333 1.10132 11.777 1.10132C9.52061 1.10132 7.69148 2.93045 7.69148 5.1868C7.69148 7.44315 9.52061 9.27228 11.777 9.27228Z" fill="black"/>
<path fill-rule="evenodd" clip-rule="evenodd" d="M18.2417 9.60968C19.6696 9.60968 20.8272 8.45212 20.8272 7.0242C20.8272 5.59628 19.6696 4.43872 18.2417 4.43872C16.8138 4.43872 15.6562 5.59628 15.6562 7.0242C15.6562 8.45212 16.8138 9.60968 18.2417 9.60968ZM18.2417 11.1097C20.498 11.1097 22.3272 9.28055 22.3272 7.0242C22.3272 4.76785 20.498 2.93872 18.2417 2.93872C15.9853 2.93872 14.1562 4.76785 14.1562 7.0242C14.1562 9.28055 15.9853 11.1097 18.2417 11.1097Z" fill="black"/>
<path fill-rule="evenodd" clip-rule="evenodd" d="M23.1412 14.6013C24.5691 14.6013 25.7267 13.4438 25.7267 12.0158C25.7267 10.5879 24.5691 9.43036 23.1412 9.43036C21.7133 9.43036 20.5557 10.5879 20.5557 12.0158C20.5557 13.4438 21.7133 14.6013 23.1412 14.6013ZM23.1412 16.1013C25.3976 16.1013 27.2267 14.2722 27.2267 12.0158C27.2267 9.75949 25.3976 7.93036 23.1412 7.93036C20.8849 7.93036 19.0557 9.75949 19.0557 12.0158C19.0557 14.2722 20.8849 16.1013 23.1412 16.1013Z" fill="black"/>
<path fill-rule="evenodd" clip-rule="evenodd" d="M24.8789 20.93C26.3068 20.93 27.4644 19.7724 27.4644 18.3445C27.4644 16.9166 26.3068 15.759 24.8789 15.759C23.451 15.759 22.2934 16.9166 22.2934 18.3445C22.2934 19.7724 23.451 20.93 24.8789 20.93ZM24.8789 22.43C27.1352 22.43 28.9644 20.6008 28.9644 18.3445C28.9644 16.0881 27.1352 14.259 24.8789 14.259C22.6225 14.259 20.7934 16.0881 20.7934 18.3445C20.7934 20.6008 22.6225 22.43 24.8789 22.43Z" fill="black"/>
<path fill-rule="evenodd" clip-rule="evenodd" d="M7.60684 9.40314L8.99115 8.05621C16.6984 8.05623 21.9587 11.1616 21.8989 21.1884L20.5894 22.4231C21.1132 23.0342 21.9063 24.608 20.8887 26.0148C20.8138 26.1182 20.7373 26.2242 20.6597 26.3317C19.6818 27.6857 18.5286 29.2824 18.3446 29.1949L0.87239 11.7976C0.755375 11.673 2.9676 9.77729 3.75329 9.40314C4.53897 9.02899 6.22254 8.43039 7.60684 9.40314ZM7.98103 13.8928L16.0624 22.1612C17.4716 20.6772 19.9908 16.5492 16.2869 13.2942C12.5829 10.0392 9.41522 12.2217 7.98103 13.8928Z" fill="black"/>
<path fill-rule="evenodd" clip-rule="evenodd" d="M11.777 7.77228C13.2049 7.77228 14.3624 6.61472 14.3624 5.1868C14.3624 3.75888 13.2049 2.60132 11.777 2.60132C10.349 2.60132 9.19148 3.75888 9.19148 5.1868C9.19148 6.61472 10.349 7.77228 11.777 7.77228ZM11.777 9.27228C14.0333 9.27228 15.8624 7.44315 15.8624 5.1868C15.8624 2.93045 14.0333 1.10132 11.777 1.10132C9.52061 1.10132 7.69148 2.93045 7.69148 5.1868C7.69148 7.44315 9.52061 9.27228 11.777 9.27228Z" stroke="black"/>
<path fill-rule="evenodd" clip-rule="evenodd" d="M18.2417 9.60968C19.6696 9.60968 20.8272 8.45212 20.8272 7.0242C20.8272 5.59628 19.6696 4.43872 18.2417 4.43872C16.8138 4.43872 15.6562 5.59628 15.6562 7.0242C15.6562 8.45212 16.8138 9.60968 18.2417 9.60968ZM18.2417 11.1097C20.498 11.1097 22.3272 9.28055 22.3272 7.0242C22.3272 4.76785 20.498 2.93872 18.2417 2.93872C15.9853 2.93872 14.1562 4.76785 14.1562 7.0242C14.1562 9.28055 15.9853 11.1097 18.2417 11.1097Z" stroke="black"/>
<path fill-rule="evenodd" clip-rule="evenodd" d="M23.1412 14.6013C24.5691 14.6013 25.7267 13.4438 25.7267 12.0158C25.7267 10.5879 24.5691 9.43036 23.1412 9.43036C21.7133 9.43036 20.5557 10.5879 20.5557 12.0158C20.5557 13.4438 21.7133 14.6013 23.1412 14.6013ZM23.1412 16.1013C25.3976 16.1013 27.2267 14.2722 27.2267 12.0158C27.2267 9.75949 25.3976 7.93036 23.1412 7.93036C20.8849 7.93036 19.0557 9.75949 19.0557 12.0158C19.0557 14.2722 20.8849 16.1013 23.1412 16.1013Z" stroke="black"/>
<path fill-rule="evenodd" clip-rule="evenodd" d="M24.8789 20.93C26.3068 20.93 27.4644 19.7724 27.4644 18.3445C27.4644 16.9166 26.3068 15.759 24.8789 15.759C23.451 15.759 22.2934 16.9166 22.2934 18.3445C22.2934 19.7724 23.451 20.93 24.8789 20.93ZM24.8789 22.43C27.1352 22.43 28.9644 20.6008 28.9644 18.3445C28.9644 16.0881 27.1352 14.259 24.8789 14.259C22.6225 14.259 20.7934 16.0881 20.7934 18.3445C20.7934 20.6008 22.6225 22.43 24.8789 22.43Z" stroke="black"/>
<path fill-rule="evenodd" clip-rule="evenodd" d="M7.60684 9.40314L8.99115 8.05621C16.6984 8.05623 21.9587 11.1616 21.8989 21.1884L20.5894 22.4231C21.1132 23.0342 21.9063 24.608 20.8887 26.0148C20.8138 26.1182 20.7373 26.2242 20.6597 26.3317C19.6818 27.6857 18.5286 29.2824 18.3446 29.1949L0.87239 11.7976C0.755375 11.673 2.9676 9.77729 3.75329 9.40314C4.53897 9.02899 6.22254 8.43039 7.60684 9.40314ZM7.98103 13.8928L16.0624 22.1612C17.4716 20.6772 19.9908 16.5492 16.2869 13.2942C12.5829 10.0392 9.41522 12.2217 7.98103 13.8928Z" stroke="black"/>
</svg>
