<svg width="28" height="29" viewBox="0 0 28 29" fill="none" xmlns="http://www.w3.org/2000/svg">
<path fill-rule="evenodd" clip-rule="evenodd" d="M6.88401 3.16306C7.39836 3.16306 7.84025 2.85526 8.03274 2.41521H9.31124V6.79166C7.54157 7.04483 6.14557 8.45633 5.91594 10.2335H1.53265L1.53265 9.20337C2.08859 9.07684 2.50325 8.58302 2.50325 7.99311C2.50325 7.30735 1.94288 6.75142 1.25163 6.75142C0.560373 6.75142 0 7.30735 0 7.99311C0 8.41343 0.210516 8.78497 0.532654 9.00962L0.532654 10.7335C0.532654 11.0096 0.756511 11.2335 1.03265 11.2335H5.88275V12.1278H3.58303C3.30689 12.1278 3.08303 12.3516 3.08303 12.6278C3.08303 12.9039 3.30689 13.1278 3.58303 13.1278H5.88275V14.0867H2.27346C2.04673 13.7693 1.67356 13.5622 1.25163 13.5622C0.560373 13.5622 0 14.1181 0 14.8039C0 15.4897 0.560373 16.0456 1.25163 16.0456C1.84482 16.0456 2.34164 15.6362 2.47065 15.0867H5.88275V16.1271H3.58303C3.30689 16.1271 3.08303 16.351 3.08303 16.6271C3.08303 16.9033 3.30689 17.1271 3.58303 17.1271H5.88275V18.0656H1.03265C0.756511 18.0656 0.532654 18.2895 0.532654 18.5656L0.532654 20.5986C0.210516 20.8232 0 21.1947 0 21.6151C0 22.3008 0.560373 22.8568 1.25163 22.8568C1.94288 22.8568 2.50325 22.3008 2.50325 21.6151C2.50325 21.0252 2.08859 20.5313 1.53265 20.4048L1.53265 19.0656H5.93424C6.21179 20.7818 7.58125 22.1322 9.30689 22.381V26.7207H8.15616C7.92942 26.4034 7.55628 26.1963 7.13438 26.1963C6.44312 26.1963 5.88275 26.7522 5.88275 27.438C5.88275 28.1238 6.44312 28.6797 7.13438 28.6797C7.7276 28.6797 8.22443 28.2703 8.35342 27.7207H9.80689C10.083 27.7207 10.3069 27.4969 10.3069 27.2207V22.4221H11.2921V24.8169C11.2921 25.093 11.5159 25.3169 11.7921 25.3169C12.0682 25.3169 12.2921 25.093 12.2921 24.8169V22.4221H13.281V26.4215C12.9588 26.6461 12.7483 27.0177 12.7483 27.438C12.7483 28.1238 13.3087 28.6797 13.9999 28.6797C14.6912 28.6797 15.2516 28.1238 15.2516 27.438C15.2516 26.8481 14.8369 26.3543 14.281 26.2277V22.4221H15.3234V24.6905C15.3234 24.9666 15.5473 25.1905 15.8234 25.1905C16.0996 25.1905 16.3234 24.9666 16.3234 24.6905V22.4221H17.2548V27.2207C17.2548 27.4969 17.4786 27.7207 17.7548 27.7207H19.6466C19.7756 28.2703 20.2724 28.6797 20.8656 28.6797C21.5569 28.6797 22.1173 28.1238 22.1173 27.438C22.1173 26.7522 21.5569 26.1963 20.8656 26.1963C20.4437 26.1963 20.0706 26.4034 19.8439 26.7207H18.2548V22.3811C19.9969 22.13 21.3761 20.7562 21.6354 19.0167H26.0293V20.5986C25.7073 20.8233 25.4968 21.1948 25.4968 21.6151C25.4968 22.3008 26.0571 22.8568 26.7484 22.8568C27.4396 22.8568 28 22.3008 28 21.6151C28 21.0251 27.5853 20.5313 27.0293 20.4048V18.5167C27.0293 18.2406 26.8055 18.0167 26.5293 18.0167H21.6792V17.1271H23.9788C24.255 17.1271 24.4788 16.9033 24.4788 16.6271C24.4788 16.351 24.255 16.1271 23.9788 16.1271H21.6792V15.0867H25.5294C25.6584 15.6362 26.1552 16.0456 26.7484 16.0456C27.4396 16.0456 28 15.4897 28 14.8039C28 14.1181 27.4396 13.5622 26.7484 13.5622C26.3265 13.5622 25.9533 13.7693 25.7266 14.0867H21.6792V13.1278H23.9788C24.255 13.1278 24.4788 12.9039 24.4788 12.6278C24.4788 12.3516 24.255 12.1278 23.9788 12.1278H21.6792V11.1569H26.5293C26.8055 11.1569 27.0293 10.933 27.0293 10.6569V9.2031C27.5853 9.0766 28 8.58276 28 7.99282C28 7.30706 27.4396 6.75114 26.7484 6.75114C26.0571 6.75114 25.4968 7.30706 25.4968 7.99282C25.4968 8.41311 25.7073 8.78463 26.0293 9.00929V10.1569H21.6354C21.3761 8.41578 19.9948 7.04103 18.2505 6.79162V2.45245H19.6466C19.7756 3.00201 20.2724 3.41143 20.8656 3.41143C21.5569 3.41143 22.1173 2.85551 22.1173 2.16974C22.1173 1.48398 21.5569 0.92806 20.8656 0.92806C20.4437 0.92806 20.0706 1.13515 19.8439 1.45245H17.7505C17.4743 1.45245 17.2505 1.67631 17.2505 1.95245V6.75114H16.3234V4.4826C16.3234 4.20646 16.0996 3.9826 15.8234 3.9826C15.5473 3.9826 15.3234 4.20646 15.3234 4.4826V6.75114H14.281V3.38001C14.8369 3.25348 15.2516 2.75965 15.2516 2.16974C15.2516 1.48398 14.6912 0.92806 13.9999 0.92806C13.3087 0.92806 12.7483 1.48398 12.7483 2.16974C12.7483 2.59006 12.9588 2.9616 13.281 3.18626V6.75114H12.2921V4.4826C12.2921 4.20646 12.0682 3.9826 11.7921 3.9826C11.5159 3.9826 11.2921 4.20646 11.2921 4.4826V6.75114H10.3112V1.91521C10.3112 1.63907 10.0874 1.41521 9.81124 1.41521H8.02727C7.83198 0.981746 7.39355 0.679688 6.88401 0.679688C6.19276 0.679688 5.63239 1.23561 5.63239 1.92137C5.63239 2.60714 6.19276 3.16306 6.88401 3.16306Z" fill="#1E1E1E"/>
</svg>
