<svg width="28" height="26" fill="none" xmlns="http://www.w3.org/2000/svg"><g filter="url(#a)" fill="#00F0FF"><path fill-rule="evenodd" clip-rule="evenodd" d="M13.623 7.42c1.124-1.277 4.071-3.355 6.868-1.457 2.798 1.898 2.174 4.365 1.54 5.994-.633 1.63-8.408 9.241-8.408 9.241V7.42Zm0 0c-1.124-1.277-4.071-3.355-6.868-1.457-2.798 1.898-2.174 4.365-1.54 5.994.633 1.63 8.408 9.241 8.408 9.241V7.42Z"/><path d="m20.491 5.963.281-.414-.28.414ZM13.623 7.42l-.375-.33a.5.5 0 0 0-.125.33h.5Zm8.409 4.537-.466-.18.466.18Zm-8.409 9.241h-.5a.5.5 0 0 0 .85.358l-.35-.358ZM6.755 5.963l-.281-.414.28.414Zm6.868 1.457h.5a.5.5 0 0 0-.125-.33l-.375.33Zm-8.409 4.537.466-.18-.466.18Zm8.409 9.241-.35.358a.5.5 0 0 0 .85-.358h-.5Zm7.15-15.649c-1.561-1.058-3.172-1.001-4.513-.518-1.323.476-2.408 1.372-3.012 2.059l.75.66c.52-.59 1.47-1.371 2.601-1.779 1.113-.4 2.375-.434 3.612.406l.561-.828Zm1.725 6.59c.323-.832.675-1.95.547-3.132-.131-1.214-.762-2.432-2.273-3.458l-.561.828c1.286.872 1.742 1.836 1.84 2.738.101.934-.175 1.864-.485 2.661l.932.363Zm-8.875 9.06.35.357.001-.002.005-.004.017-.017a28.803 28.803 0 0 0 .314-.31 212.35 212.35 0 0 0 3.64-3.688 88.585 88.585 0 0 0 2.878-3.119c.413-.476.777-.916 1.06-1.294.274-.364.503-.71.61-.983l-.932-.363c-.052.133-.204.382-.478.746-.263.35-.61.772-1.015 1.239-.81.933-1.835 2.03-2.844 3.082a198.832 198.832 0 0 1-3.87 3.913l-.064.064a3.712 3.712 0 0 1-.016.016l-.005.004v.001l.349.357Zm-.5-13.779v13.778h1V7.42h-1ZM7.035 6.377c1.237-.84 2.499-.806 3.612-.406 1.13.408 2.081 1.19 2.6 1.78l.751-.661c-.604-.687-1.69-1.583-3.012-2.06-1.341-.482-2.952-.54-4.512.52l.561.827Zm-1.355 5.4c-.31-.798-.586-1.728-.485-2.662.098-.902.554-1.866 1.84-2.738l-.561-.828C4.963 6.575 4.332 7.793 4.2 9.007c-.128 1.182.224 2.3.547 3.132l.932-.363Zm7.943 9.421.35-.357-.002-.001-.004-.004a3.712 3.712 0 0 1-.08-.08l-.248-.244a204.262 204.262 0 0 1-3.622-3.67 87.739 87.739 0 0 1-2.844-3.081 23.551 23.551 0 0 1-1.015-1.239c-.274-.364-.426-.613-.478-.746l-.932.363c.107.274.336.619.61.983.283.378.647.819 1.06 1.294a88.639 88.639 0 0 0 2.878 3.12 201.1 201.1 0 0 0 3.64 3.688l.249.245a15.24 15.24 0 0 0 .087.085v.001h.001l.35-.357Zm-.5-13.778v13.778h1V7.42h-1Z"/></g><defs><filter id="a" x=".174" y=".699" width="26.898" height="25" filterUnits="userSpaceOnUse" color-interpolation-filters="sRGB"><feFlood flood-opacity="0" result="BackgroundImageFix"/><feColorMatrix in="SourceAlpha" values="0 0 0 0 0 0 0 0 0 0 0 0 0 0 0 0 0 0 127 0" result="hardAlpha"/><feOffset/><feGaussianBlur stdDeviation="2"/><feComposite in2="hardAlpha" operator="out"/><feColorMatrix values="0 0 0 0 0 0 0 0 0 0.94 0 0 0 0 1 0 0 0 1 0"/><feBlend in2="BackgroundImageFix" result="effect1_dropShadow_8_259"/><feBlend in="SourceGraphic" in2="effect1_dropShadow_8_259" result="shape"/></filter></defs></svg>